# xmcd CD database file
#
# Track frame offsets:
#	182
#	14022
#	26342
#	38557
#	53280
#	65937
#	77632
#	90990
#	101630
#	115265
#	127912
#	138952
#	153127
#	165830
#	177790
#	192365
#
# Disc length: 2775 seconds
#
# Revision: 1
# Processed by: cddbd v1.5.2PL0 Copyright (c) Steve Scherf et al.
# Submitted via: CDex 1.51
#
DISCID=b80ad510
DTITLE=tche barbaridade - O melhor de tche barbaridade
DYEAR=1994
DGENRE=Country
TTITLE0=Ausencia
TTITLE1=Moca fandangueira
TTITLE2=Esse e o Bugiu
TTITLE3=Nao sei dancar
TTITLE4=Xixo da Claudete
TTITLE5=Vamo pro sul
TTITLE6=Vanera e mulher
TTITLE7=Ela e bonita
TTITLE8=Vou te querer
TTITLE9=Mondongaco
TTITLE10=Voltei pra ti
TTITLE11=Embalo de vanera
TTITLE12=Ela e maleva
TTITLE13=Namoradeira
TTITLE14=Cancao a jovem gaucha
TTITLE15=Saudades de ti
EXTD=YEAR: 1994
EXTT0=
EXTT1=
EXTT2=
EXTT3=
EXTT4=
EXTT5=
EXTT6=
EXTT7=
EXTT8=
EXTT9=
EXTT10=
EXTT11=
EXTT12=
EXTT13=
EXTT14=
EXTT15=
PLAYORDER=
